{"title":"Sia ft. Maddie Ziegler - Chandelier (2014.Electropop)","uid":11794674,"size":64043924,"categoryP":"video","categoryS":"music_videos","magnet":"?xt=urn:btih:b93f2b0610e9e12313f71da5bda6212e9af8b653&amp;dn=Sia+ft.+Maddie+Ziegler+-+Chandelier+%282014.Electropop%29&amp;tr=udp%3A%2F%2Ftracker.openbittorrent.com%3A80&amp;tr=udp%3A%2F%2Fopen.demonii.com%3A1337&amp;tr=udp%3A%2F%2Ftracker.coppersurfer.tk%3A6969&amp;tr=udp%3A%2F%2Fexodus.desync.com%3A6969","seeders":5,"leechers":0,"uploader":"MeRaDil","files":1,"time":1428085460,"description":"SIA ft.MADDIE ZIEGLER - CHANDELIER\n\n &lt;a href=&quot;\nhttp://gifyu.com/images/chandelier.png&quot; rel=&quot;nofollow&quot; target=&quot;_NEW&quot;&gt;\nhttp://gifyu.com/images/chandelier.png&lt;/a&gt;\n\nGeneral\nSia - Chandelier\nFormat                      : MPEG-4\nFormat profile              : Base Media\nCodec ID                    : isom\nFile size                   : 61.1 MiB\nDuration                    : 3mn 51s\nOverall bit rate            : 2 214 Kbps\nMusicVid name               : Chandelier\nAlbum                       : 1000 Forms of Fear\nPerformer                   : Sia\nGenre                       : Electropop\nContentType                 : Music Video\nRecorded date               : 2014\nCopyright                   : Sia\nCover                       : Yes\nComment                     : Maddie Ziegler\nMake                        : MeRaDil\nRelease                     : Australia/USA - may 6 - 2014\nPart_ID                     : Chandelier\n\nVideo\nID                          : 1\nFormat                      : AVC\nFormat/Info                 : Advanced Video Codec\nFormat profile              : &lt;a class=&quot;__cf_email__&quot; href=&quot;/cdn-cgi/l/email-protection&quot; data-cfemail=&quot;e6ae8f818ea6aad2c8d6&quot;&gt;[email&amp;#160;protected]&lt;/a&gt;&lt;script cf-hash='f9e31' type=&quot;text/javascript&quot;&gt;\n/* &lt;![CDATA[ */!function(){try{var t=&quot;currentScript&quot;in document?document.currentScript:function(){for(var t=document.getElementsByTagName(&quot;script&quot;),e=t.length;e--;)if(t[e].getAttribute(&quot;cf-hash&quot;))return t[e]}();if(t&amp;&amp;t.previousSibling){var e,r,n,i,c=t.previousSibling,a=c.getAttribute(&quot;data-cfemail&quot;);if(a){for(e=&quot;&quot;,r=parseInt(a.substr(0,2),16),n=2;a.length-n;n+=2)i=parseInt(a.substr(n,2),16)^r,e+=String.fromCharCode(i);e=document.createTextNode(e),c.parentNode.replaceChild(e,c)}}}catch(u){}}();/* ]]&gt; */&lt;/script&gt;\nFormat settings, CABAC      : Yes\nFormat settings, ReFrames   : 3 frames\nCodec ID                    : avc1\nCodec ID/Info               : Advanced Video Coding\nDuration                    : 3mn 51s\nBit rate                    : 1 951 Kbps\nWidth                       : 1 920 pixels\nHeight                      : 1 080 pixels\nDisplay aspect ratio        : 16:9\nFrame rate mode             : Variable\nFrame rate                  : 23.976 fps\nMinimum frame rate          : 23.974 fps\nMaximum frame rate          : 23.981 fps\nColor space                 : YUV\nChroma subsampling          : 4:2:0\nBit depth                   : 8 bits\nScan type                   : Progressive\nBits/(Pixel*Frame)          : 0.039\nStream size                 : 53.8 MiB (88%)\n\nAudio\nID                          : 2\nFormat                      : AAC\nFormat/Info                 : Advanced Audio Codec\nFormat profile              : LC\nCodec ID                    : 40\nDuration                    : 3mn 51s\nBit rate mode               : Constant\nBit rate                    : 256 Kbps\nChannel(s)                  : 2 channels\nChannel positions           : Front: L R\nSampling rate               : 44.1 KHz\nCompression mode            : Lossy\nStream size                 : 7.06 MiB (12%)\n\nSia * Maddie Ziegler * Promo * Electropop","torrent":{"xt":"urn:btih:b93f2b0610e9e12313f71da5bda6212e9af8b653","amp;dn":"Sia+ft.+Maddie+Ziegler+-+Chandelier+%282014.Electropop%29","amp;tr":["udp%3A%2F%2Ftracker.openbittorrent.com%3A80","udp%3A%2F%2Fopen.demonii.com%3A1337","udp%3A%2F%2Ftracker.coppersurfer.tk%3A6969","udp%3A%2F%2Fexodus.desync.com%3A6969"],"infoHash":"b93f2b0610e9e12313f71da5bda6212e9af8b653","infoHashBuffer":{"type":"Buffer","data":[185,63,43,6,16,233,225,35,19,247,29,165,189,166,33,46,154,248,182,83]},"announce":[],"urlList":[]}}